<svg width="13" height="13" viewBox="0 0 13 13" fill="none" xmlns="http://www.w3.org/2000/svg">
<path d="M6.125 0C2.74258 0 0 2.74258 0 6.125C0 9.50742 2.74258 12.25 6.125 12.25C9.50742 12.25 12.25 9.50742 12.25 6.125C12.25 2.74258 9.50742 0 6.125 0ZM6.125 11.2109C3.3168 11.2109 1.03906 8.9332 1.03906 6.125C1.03906 3.3168 3.3168 1.03906 6.125 1.03906C8.9332 1.03906 11.2109 3.3168 11.2109 6.125C11.2109 8.9332 8.9332 11.2109 6.125 11.2109ZM6.20156 3.92793C6.92617 3.92793 7.41836 4.39004 7.47305 5.06816C7.47715 5.12559 7.525 5.16934 7.58242 5.16934H8.35762C8.39316 5.16934 8.42188 5.14062 8.42188 5.10508C8.42188 3.91973 7.48672 3.08984 6.19746 3.08984C4.69492 3.08984 3.82812 4.1043 3.82812 5.78047V6.49551C3.82812 8.15937 4.69492 9.16016 6.19746 9.16016C7.48262 9.16016 8.42188 8.35625 8.42188 7.22695C8.42188 7.19141 8.39316 7.1627 8.35762 7.1627H7.58105C7.52363 7.1627 7.47715 7.20645 7.47168 7.2625C7.41426 7.89277 6.92344 8.32617 6.2002 8.32617C5.30742 8.32617 4.8043 7.67129 4.8043 6.49961V5.78047C4.80566 4.59102 5.31016 3.92793 6.20156 3.92793Z" fill="#FBFBFB"/>
</svg>
