<svg width="18" height="18" viewBox="0 0 18 18" fill="none" xmlns="http://www.w3.org/2000/svg">
<path fill-rule="evenodd" clip-rule="evenodd" d="M1.76341 11.5359C1.40666 11.1143 0.775685 11.0618 0.354078 11.4185C-0.067528 11.7752 -0.120109 12.4062 0.236635 12.8278L3.46741 16.646L4.23079 17.5482L4.99418 16.646L8.22495 12.8278C8.58169 12.4062 8.52911 11.7752 8.1075 11.4185C7.68589 11.0618 7.05492 11.1143 6.69817 11.5359L5.23079 13.2701L5.23079 2C5.23079 1.44771 4.78308 0.999998 4.23079 0.999998C3.67851 0.999998 3.23079 1.44771 3.23079 2L3.23079 13.2701L1.76341 11.5359Z" fill="black"/>
<path fill-rule="evenodd" clip-rule="evenodd" d="M16.2366 6.46405C16.5934 6.88566 17.2243 6.93824 17.646 6.5815C18.0676 6.22475 18.1201 5.59378 17.7634 5.17217L14.5326 1.35399L13.7692 0.451803L13.0059 1.35399L9.77509 5.17217C9.41834 5.59378 9.47092 6.22475 9.89253 6.5815C10.3141 6.93824 10.9451 6.88566 11.3019 6.46405L12.7692 4.72988L12.7692 16C12.7692 16.5523 13.217 17 13.7692 17C14.3215 17 14.7692 16.5523 14.7692 16L14.7692 4.72987L16.2366 6.46405Z" fill="black"/>
</svg>
