<svg width="20" height="21" viewBox="0 0 20 21" fill="none" xmlns="http://www.w3.org/2000/svg">
<path fill-rule="evenodd" clip-rule="evenodd" d="M19.7637 20.0187C19.7076 19.8685 19.6242 19.7457 19.5409 19.623C19.4901 19.5484 19.4394 19.4737 19.3949 19.393C19.1091 19.0227 18.7763 18.6992 18.4394 18.38C18.3787 18.359 18.336 18.3201 18.2932 18.2813C18.253 18.2447 18.2127 18.2081 18.1573 18.1862C18.1101 18.1271 18.0453 18.0854 17.9806 18.0438C17.9444 18.0205 17.9082 17.9972 17.8751 17.9709C17.6866 17.8274 17.4788 17.7034 17.2678 17.5824C16.9028 17.3478 16.4549 17.1961 16.0069 17.0443L16.0068 17.0443L15.8785 17.0008C15.3466 16.8751 14.7874 16.777 14.2079 16.699L14.1657 16.6929C13.6045 16.6118 13.0441 16.5308 12.6235 16.3109C12.4498 16.2606 12.3082 16.1783 12.1665 16.096C12.1027 16.0589 12.0389 16.0219 11.9722 15.9877C11.9157 15.95 11.8574 15.9142 11.7991 15.8783C11.6519 15.7878 11.5048 15.6973 11.3864 15.578C11.2431 15.4925 11.138 15.3691 11.0328 15.2458C10.9854 15.1902 10.938 15.1345 10.8871 15.0823C10.8628 15.0357 10.8316 14.996 10.8004 14.9563C10.7587 14.9032 10.717 14.8501 10.692 14.7805C10.6541 14.7664 10.6351 14.7334 10.6161 14.7005C10.6061 14.6832 10.5961 14.6659 10.5834 14.6513C10.5674 14.6341 10.5579 14.6107 10.5483 14.5874C10.5327 14.5494 10.5172 14.5115 10.4745 14.5005C10.4421 14.7305 10.4497 15.0013 10.4745 15.2334C10.4904 15.288 10.5006 15.3481 10.5108 15.4083C10.5194 15.4588 10.528 15.5093 10.54 15.5566C10.5459 15.5869 10.559 15.6227 10.5725 15.6596L10.5725 15.6597C10.5993 15.7333 10.6278 15.8113 10.605 15.8583C8.86248 15.7712 7.58999 15.2176 6.48137 14.5005C5.93456 14.1381 5.46499 13.6995 5.02765 13.2285C4.97841 13.1615 4.9283 13.0954 4.87819 13.0294C4.7324 12.8371 4.5867 12.645 4.46282 12.4308C4.34097 12.2321 4.2342 12.0183 4.1274 11.8044C4.08076 11.711 4.03411 11.6176 3.9862 11.5254C3.73009 10.8741 3.48898 10.2084 3.39988 9.39163C3.28156 8.63093 3.31279 7.66131 3.48629 6.95564C3.53711 6.6438 3.62941 6.37358 3.72169 6.10343C3.74486 6.03561 3.76802 5.96778 3.79053 5.89931C3.86575 5.74443 3.94053 5.58878 4.00713 5.42523C4.04608 5.3699 4.07741 5.30697 4.10875 5.24404C4.15405 5.15305 4.19937 5.06204 4.26772 4.99396C4.58886 4.40047 5.06146 3.95697 5.54838 3.52814C6.07224 3.14312 6.67189 2.83315 7.39287 2.64447C8.08307 2.48748 9.02882 2.46158 9.78058 2.62279C11.2992 2.93176 12.4484 3.60875 13.405 4.47674C14.3778 5.32761 15.1254 6.40329 15.6401 7.71012C16.172 8.95591 16.3543 10.8889 15.8785 12.3015C15.6846 12.1925 15.4894 12.0844 15.2923 11.978C15.2579 11.9682 15.2237 11.9581 15.1895 11.9481L15.1894 11.948L15.1893 11.948C14.9893 11.8894 14.7893 11.8307 14.555 11.8057C14.2242 11.8006 13.9026 11.8052 13.6866 11.9138C14.1177 11.8705 14.4644 11.9864 14.7286 12.0862C14.8872 12.1459 14.9759 12.1886 15.0972 12.2583C15.3384 12.3966 15.5509 12.5268 15.7265 12.711C16.2355 13.1545 16.5991 13.7416 16.7687 14.5219C16.7701 14.5446 16.7963 14.5389 16.79 14.5005C16.8138 14.496 16.8231 14.4779 16.8325 14.4595L16.8337 14.4573C16.8409 14.4487 16.8483 14.4402 16.8557 14.4318L16.8557 14.4318C16.8785 14.4055 16.9014 14.3793 16.9207 14.3494C16.9781 14.2843 17.0333 14.2169 17.0721 14.1339C17.1881 13.9972 17.2854 13.8419 17.3759 13.6811C17.5243 13.4676 17.6478 13.2293 17.7712 12.991L17.7713 12.9909C17.8198 12.8971 17.8684 12.8033 17.9186 12.711C18.2284 12.0127 18.4794 11.2564 18.635 10.4047C18.9453 8.50762 18.5756 6.70693 17.9186 5.38198C17.2468 4.04447 16.3088 2.97145 15.0972 2.17017C13.8744 1.37322 12.4411 0.784738 10.4745 0.725812C10.4694 0.704953 10.4612 0.709248 10.4481 0.716022C10.4382 0.721162 10.4255 0.72773 10.4094 0.725812C9.37089 0.690901 8.53014 0.836883 7.697 1.04924C7.60047 1.08176 7.50251 1.11286 7.40454 1.14397L7.40453 1.14397C7.1133 1.23643 6.82205 1.32891 6.56834 1.45861C6.32737 1.53641 6.11831 1.64578 5.90926 1.75515C5.77716 1.82425 5.64508 1.89335 5.50495 1.95448C5.43879 2.01559 5.35703 2.06132 5.2753 2.10705C5.19495 2.15199 5.11462 2.19692 5.04915 2.25645C4.96417 2.29835 4.8904 2.35138 4.81666 2.40439C4.73935 2.45997 4.66208 2.51552 4.57196 2.55819C4.45476 2.66043 4.33348 2.75848 4.21222 2.8565L4.21221 2.85651C4.04625 2.99067 3.88034 3.12479 3.72505 3.26953C3.56768 3.41097 3.42325 3.5655 3.27881 3.72004C3.17596 3.83008 3.07311 3.94013 2.96556 4.04547C2.93072 4.12824 2.87029 4.18606 2.80983 4.24389L2.79195 4.26105C2.74594 4.34444 2.68953 4.41793 2.61845 4.47674C2.60371 4.52956 2.57206 4.5657 2.54038 4.60189C2.51144 4.63494 2.48247 4.66803 2.46633 4.71389C2.43141 4.73944 2.40955 4.77796 2.38767 4.81651C2.36271 4.8605 2.33772 4.90453 2.29327 4.92936C2.25235 5.02596 2.19685 5.10778 2.14139 5.18954L2.14139 5.18955C2.09491 5.25807 2.04845 5.32656 2.01063 5.40366C1.9681 5.47322 1.92913 5.54628 1.89017 5.61936L1.89017 5.61936C1.83901 5.71531 1.78784 5.81127 1.72855 5.89931C1.6861 5.99859 1.64248 6.09671 1.59885 6.19482L1.59884 6.19484C1.48291 6.45556 1.367 6.71623 1.27331 6.99856C1.14122 7.37802 1.02537 7.77316 0.947575 8.20577C0.863063 8.61147 0.785827 9.1368 0.795454 9.56396C0.754075 9.68563 0.770721 9.88162 0.784957 10.0492C0.789206 10.0993 0.793241 10.1468 0.795454 10.189C0.796356 10.2066 0.788937 10.2194 0.782484 10.2305L0.782483 10.2305C0.777736 10.2387 0.773514 10.246 0.773514 10.2536C0.773169 10.3785 0.795246 10.5214 0.814039 10.643C0.825728 10.7186 0.836147 10.786 0.839109 10.8358C0.885114 11.3073 0.966492 11.7439 1.09925 12.1291C1.15343 12.4045 1.24746 12.6404 1.34146 12.8762C1.39312 13.0058 1.44477 13.1353 1.48979 13.2714C1.56378 13.3941 1.62944 13.5251 1.6951 13.656C1.80261 13.8705 1.91012 14.0849 2.05418 14.263C2.20334 14.5506 2.4033 14.7879 2.60328 15.0252C2.63741 15.0657 2.67154 15.1062 2.70542 15.1469C2.73646 15.1793 2.76738 15.2117 2.79831 15.2442L2.79832 15.2442C3.02061 15.4775 3.24313 15.711 3.50834 15.9014C4.06086 16.3801 4.7111 16.762 5.41786 17.0871C6.74207 17.7228 8.7201 18.1439 10.4964 18.035L10.5773 18.0246C11.0052 17.9699 11.4333 17.9151 11.8201 17.8194C12.2021 17.6822 12.641 17.5996 13.1007 17.5397C14.1479 17.4736 15.0512 17.5666 15.8566 17.7981C16.6749 18.0136 17.3774 18.3427 17.9836 18.7686C18.2793 18.9417 18.5311 19.1596 18.7827 19.3772L18.8517 19.4368C19.034 19.5949 19.1946 19.7747 19.3551 19.9545L19.3551 19.9545C19.4394 20.0488 19.5236 20.1431 19.6109 20.2343C19.6359 20.3056 19.6755 20.3628 19.7151 20.4199C19.7317 20.4438 19.7483 20.4677 19.7637 20.4927C19.7863 20.5164 19.7974 20.5515 19.8085 20.5866C19.8303 20.6551 19.852 20.7237 19.9586 20.7082C20.0261 20.6443 19.9974 20.5587 19.9686 20.4728C19.9537 20.4282 19.9387 20.3835 19.9371 20.3417C19.9044 20.298 19.8818 20.2444 19.8592 20.1908C19.8328 20.128 19.8064 20.0653 19.7637 20.0187ZM15.7084 14.1122C15.6959 14.1122 15.6892 14.1179 15.6826 14.1235C15.6775 14.1278 15.6725 14.1321 15.6651 14.1339C15.6264 14.2172 15.6444 14.3484 15.6651 14.4357C15.6944 14.4962 15.719 14.5614 15.7437 14.6266C15.8158 14.8174 15.8879 15.0083 16.0777 15.0823C16.1962 15.0444 16.1914 14.8833 16.1866 14.7227L16.1858 14.6943C16.1294 14.4845 16.05 14.2973 15.9251 14.1554C15.9012 14.147 15.8794 14.1372 15.8591 14.1281L15.8591 14.1281C15.8014 14.1024 15.7557 14.0819 15.7084 14.1122ZM14.168 14.7159C14.1721 14.6913 14.19 14.704 14.19 14.7159C14.5746 14.7645 14.7513 15.0203 14.7758 15.4272C14.7414 15.6522 14.6145 15.7848 14.4065 15.8368C13.8885 15.8455 13.5935 15.3717 13.7773 14.8883C13.7956 14.8735 13.8129 14.8577 13.8302 14.842C13.9109 14.7685 13.9918 14.695 14.168 14.7159Z" fill="#FCB316"/>
</svg>
