<svg width="38" height="38" viewBox="0 0 38 38" fill="none" xmlns="http://www.w3.org/2000/svg">
<path d="M10.7133 6.9618C10.5382 6.30866 10.1532 5.73109 9.61761 5.31818C9.08197 4.90543 8.42543 4.68026 7.74919 4.67735L7.74115 4.67735C6.9284 4.67735 6.14894 5.00016 5.57425 5.57499C4.99956 6.14965 4.6767 6.92914 4.6767 7.74181L4.6767 7.74967C4.67965 8.42589 4.9049 9.08228 5.31771 9.61779C5.73052 10.1533 6.30801 10.5383 6.96115 10.7133C8.7746 11.2139 10.3737 12.2957 11.5134 13.7924C12.653 15.2893 13.2701 17.1186 13.2701 18.9999C13.2701 20.8812 12.653 22.7106 11.5134 24.2074C10.3737 25.7043 8.7746 26.7859 6.96115 27.2866C6.30806 27.4617 5.73066 27.8467 5.31795 28.3823C4.90523 28.9179 4.68008 29.5744 4.67721 30.2505L4.67721 30.2585C4.67721 31.0713 5.00007 31.8507 5.57476 32.4254C6.14946 33.0001 6.92892 33.323 7.74167 33.323L7.7497 33.323C8.42586 33.32 9.08228 33.0948 9.61782 32.6819C10.1533 32.2691 10.5383 31.6917 10.7133 31.0385C11.2139 29.2251 12.2956 27.6259 13.7925 26.4863C15.2893 25.3467 17.1186 24.7296 18.9999 24.7296C20.8812 24.7296 22.7105 25.3467 24.2074 26.4863C25.7044 27.6259 26.786 29.2251 27.2866 31.0385C27.4617 31.6916 27.8466 32.269 28.3821 32.6818C28.9176 33.0946 29.574 33.3198 30.25 33.3228L30.258 33.3228C31.0709 33.3228 31.8502 33 32.425 32.4253C32.9997 31.8506 33.3225 31.0711 33.3225 30.2584L33.3225 30.2503C33.3196 29.5742 33.0942 28.9178 32.6815 28.3822C32.2686 27.8467 31.6912 27.4618 31.038 27.2868C29.2246 26.7861 27.6255 25.7044 26.4859 24.2076C25.3462 22.7107 24.7291 20.8814 24.7291 19.0001C24.7291 17.1188 25.3462 15.2895 26.4859 13.7926C27.6255 12.2958 29.2246 11.214 31.038 10.7134C31.6912 10.5385 32.2688 10.1535 32.6817 9.61796C33.0944 9.08245 33.3198 8.42589 33.3227 7.74967L33.3227 7.74164C33.3227 6.92897 32.9997 6.14948 32.425 5.57482C31.8504 5.00016 31.0709 4.67718 30.2582 4.67718L30.25 4.67718C29.5738 4.68009 28.9174 4.90543 28.3819 5.31818C27.8464 5.73109 27.4615 6.30849 27.2864 6.96163C26.7858 8.77503 25.7042 10.3742 24.2073 11.5138C22.7103 12.6535 20.881 13.2706 18.9998 13.2706C17.1185 13.2706 15.2891 12.6535 13.7923 11.5138C12.2954 10.3742 11.2138 8.77504 10.7131 6.96163L10.7133 6.9618Z" fill="#D4088C"/>
<path d="M1.81486 33.9903C1.91289 33.8918 1.97778 33.7651 2.00049 33.6279C2.02319 33.4908 2.00259 33.3499 1.94155 33.225C1.39115 32.0853 1.20784 30.803 1.41687 29.5547C1.6259 28.3064 2.217 27.1538 3.10865 26.2556C3.23342 26.1317 3.30536 25.9644 3.30938 25.7887C3.3134 25.613 3.24918 25.4425 3.1302 25.3131C3.06883 25.2488 2.99524 25.1975 2.91374 25.162C2.83223 25.1266 2.74447 25.1078 2.65559 25.1067C2.56672 25.1057 2.47854 25.1225 2.39623 25.156C2.31393 25.1895 2.23916 25.2392 2.1763 25.302C1.08369 26.3973 0.359031 27.8055 0.10287 29.3313C-0.15329 30.857 0.0717448 32.4247 0.746755 33.8168C0.793752 33.9116 0.86267 33.9938 0.947793 34.0566C1.03292 34.1194 1.13179 34.161 1.23622 34.178C1.34064 34.195 1.4476 34.1868 1.54824 34.1542C1.64887 34.1215 1.74027 34.0653 1.81486 33.9903Z" fill="#A31FA9"/>
<path d="M4.17772 37.2509C5.56532 37.9251 7.12793 38.1521 8.64999 37.9005C10.1721 37.6489 11.5785 36.9312 12.6754 35.8463C12.7953 35.7322 12.8698 35.5786 12.8851 35.4138C12.9005 35.2491 12.8557 35.0843 12.759 34.95C12.7015 34.874 12.6284 34.8111 12.5445 34.7657C12.4607 34.7203 12.3681 34.6934 12.273 34.6868C12.1778 34.6802 12.0824 34.6941 11.9931 34.7275C11.9038 34.761 11.8227 34.8132 11.7553 34.8806C10.8569 35.7768 9.70204 36.3715 8.45066 36.5822C7.19926 36.7928 5.91333 36.6091 4.77102 36.0564C4.64597 35.9949 4.50484 35.974 4.36732 35.9965C4.22979 36.0191 4.10273 36.0839 4.00384 36.1821C3.92874 36.2568 3.87254 36.3482 3.83989 36.4489C3.80725 36.5497 3.79907 36.6567 3.81607 36.7612C3.83308 36.8657 3.87475 36.9646 3.93765 37.0498C4.00054 37.135 4.08285 37.2039 4.17772 37.2509Z" fill="#6DE0F6"/>
<path d="M36.0582 4.77463C36.6088 5.91472 36.7921 7.1974 36.5826 8.44606C36.3733 9.69455 35.7818 10.8475 34.8896 11.7456C34.7655 11.8692 34.6938 12.0359 34.6899 12.211C34.6858 12.3863 34.7497 12.5561 34.8682 12.6851C34.9294 12.7498 35.0031 12.8014 35.0847 12.8371C35.1662 12.8727 35.2541 12.8917 35.3432 12.8929C35.4323 12.8941 35.5207 12.8773 35.6031 12.8438C35.6857 12.8103 35.7606 12.7605 35.8235 12.6976C36.916 11.6023 37.6406 10.1942 37.8969 8.66834C38.1531 7.14269 37.9281 5.57498 37.253 4.18287C37.206 4.08815 37.1371 4.00591 37.052 3.94299C36.9668 3.88024 36.868 3.83869 36.7635 3.82176C36.659 3.80484 36.552 3.81304 36.4515 3.8457C36.3508 3.87836 36.2595 3.93461 36.1849 4.00967C36.087 4.10815 36.0222 4.23485 35.9994 4.37198C35.9767 4.50893 35.9972 4.64982 36.0582 4.77463Z" fill="#6DE0F6"/>
<path d="M25.3146 3.13188C25.4437 3.25037 25.6134 3.31431 25.7887 3.31021C25.9638 3.30628 26.1307 3.23464 26.2541 3.1105C27.1529 2.21765 28.3069 1.62589 29.5564 1.41713C30.8061 1.20819 32.0896 1.39251 33.23 1.94443C33.355 2.00564 33.4959 2.02633 33.6332 2.00376C33.7705 1.98102 33.8974 1.91622 33.996 1.81807C34.0711 1.74353 34.1272 1.65222 34.16 1.55169C34.1927 1.45115 34.2009 1.34429 34.1839 1.23982C34.167 1.13552 34.1256 1.03653 34.0629 0.951553C34.0001 0.866406 33.9181 0.79733 33.8233 0.750311C32.4309 0.0732338 30.8622 -0.153313 29.3351 0.102129C27.808 0.357572 26.3984 1.08235 25.3021 2.17576C25.239 2.23868 25.1892 2.31374 25.1556 2.39633C25.1219 2.47891 25.1051 2.5673 25.1063 2.65638C25.1075 2.74563 25.1265 2.83352 25.1624 2.91525C25.1981 2.99698 25.2498 3.0705 25.3146 3.13188Z" fill="#A31FA9"/>
<path d="M4.77234 1.94323C5.91255 1.39182 7.1958 1.20802 8.44494 1.41713C9.69408 1.62624 10.8475 2.21799 11.7461 3.1105C11.8696 3.23464 12.0363 3.30628 12.2114 3.31021C12.3865 3.31431 12.5564 3.25037 12.6854 3.13188C12.75 3.07067 12.8017 2.99697 12.8374 2.91542C12.8731 2.83386 12.8921 2.74598 12.8933 2.6569C12.8945 2.56782 12.8778 2.47959 12.8443 2.39701C12.8107 2.3146 12.761 2.23954 12.6981 2.17662C11.6023 1.08355 10.1933 0.358597 8.66677 0.102813C7.14027 -0.153142 5.57195 0.0725488 4.17956 0.7486C4.08482 0.795619 4.00268 0.864695 3.93993 0.949842C3.87717 1.03499 3.83562 1.13382 3.81873 1.23828C3.80183 1.34258 3.81006 1.44961 3.84275 1.55015C3.87544 1.65086 3.93164 1.74216 4.0067 1.81671C4.10534 1.91468 4.23209 1.97965 4.3693 2.00239C4.50652 2.02496 4.64739 2.00427 4.77234 1.94323Z" fill="#6DE0F6"/>
<path d="M3.11038 11.7461C2.21775 10.8476 1.62604 9.69422 1.41693 8.44504C1.20781 7.19587 1.39161 5.91267 1.94294 4.77242C2.00413 4.64743 2.02483 4.50654 2.00218 4.36942C1.97954 4.23212 1.91466 4.10542 1.81658 4.00677C1.74205 3.93171 1.65069 3.87546 1.55009 3.8428C1.44949 3.81014 1.34255 3.80194 1.23813 3.81886C1.13371 3.83562 1.03482 3.87717 0.94967 3.93992C0.864516 4.00267 0.795548 4.08491 0.748484 4.17963C0.0724174 5.57208 -0.153337 7.1403 0.102565 8.6668C0.358468 10.1933 1.08332 11.6023 2.17649 12.6981C2.23946 12.7611 2.31439 12.8108 2.39687 12.8443C2.47936 12.8778 2.56773 12.8946 2.65676 12.8934C2.7458 12.8922 2.8337 12.8732 2.91528 12.8377C2.99687 12.8019 3.07047 12.7503 3.13175 12.6857C3.25017 12.5566 3.31407 12.3868 3.31008 12.2115C3.3061 12.0365 3.23454 11.8698 3.11038 11.7461Z" fill="#D4088C"/>
<path d="M34.8897 26.2541C35.7823 27.1526 36.374 28.306 36.5831 29.5552C36.7922 30.8043 36.6084 32.0876 36.057 33.2278C35.996 33.3527 35.9753 33.4936 35.9979 33.6308C36.0206 33.768 36.0856 33.8948 36.1835 33.9934C36.2581 34.0685 36.3494 34.1247 36.4501 34.1574C36.5506 34.1901 36.6577 34.1983 36.762 34.1814C36.8664 34.1645 36.9653 34.1229 37.0504 34.0602C37.1356 33.9974 37.2046 33.9153 37.2516 33.8206C37.9277 32.4282 38.1534 30.8599 37.8974 29.3333C37.6416 27.8068 36.9167 26.3979 35.8236 25.302C35.7607 25.2391 35.6856 25.1894 35.6032 25.1558C35.5208 25.1223 35.4324 25.1057 35.3433 25.1068C35.2543 25.108 35.1664 25.127 35.0848 25.1627C35.0033 25.1984 34.9296 25.2501 34.8684 25.3147C34.7499 25.4437 34.6859 25.6136 34.6899 25.7887C34.694 25.9638 34.7654 26.1306 34.8897 26.2541Z" fill="#6DE0F6"/>
<path d="M33.2273 36.0569C32.0871 36.6084 30.8039 36.7922 29.5547 36.5831C28.3055 36.374 27.1521 35.7823 26.2536 34.8897C26.13 34.7655 25.9633 34.694 25.7882 34.69C25.6129 34.686 25.4431 34.7499 25.3141 34.8683C25.2494 34.9296 25.1978 35.0032 25.1621 35.0848C25.1265 35.1664 25.1075 35.2543 25.1063 35.3433C25.1051 35.4323 25.1219 35.5207 25.1554 35.6032C25.1889 35.6857 25.2387 35.7606 25.3016 35.8236C26.3974 36.9167 27.8064 37.6416 29.3329 37.8975C30.8594 38.1534 32.4276 37.9276 33.8201 37.2516C33.9148 37.2045 33.9971 37.1355 34.0598 37.0504C34.1226 36.9652 34.1641 36.8664 34.1809 36.7619C34.1978 36.6575 34.1896 36.5506 34.1569 36.45C34.1243 36.3494 34.068 36.258 33.993 36.1835C33.8943 36.0854 33.7676 36.0205 33.6303 35.9979C33.4932 35.9752 33.3523 35.9958 33.2273 36.0569Z" fill="#A31FA9"/>
</svg>
